<svg xmlns="http://www.w3.org/2000/svg" xmlns:xlink="http://www.w3.org/1999/xlink" width="1080" zoomAndPan="magnify" viewBox="0 0 810 809.999993" height="1080" preserveAspectRatio="xMidYMid meet" version="1.0"><defs><clipPath id="f97cdfb065"><path d="M 12.148438 0 L 798 0 L 798 810 L 12.148438 810 Z M 12.148438 0 " clip-rule="nonzero"/></clipPath></defs><g clip-path="url(#f97cdfb065)"><path fill="#535bf2" d="M 417.527344 810.085938 C 592.21875 810.085938 741.089844 699.5625 798 544.65625 C 751.441406 498.117188 704.882812 451.574219 658.339844 405.050781 L 792.246094 271.179688 L 798 265.429688 C 741.105469 110.523438 592.21875 0 417.527344 0 C 193.753906 0 12.335938 181.347656 12.335938 405.035156 C 12.335938 628.71875 193.753906 810.085938 417.527344 810.085938 Z M 615.320312 362.050781 C 586.941406 333.683594 550.785156 292.09375 519.597656 268.710938 C 491.152344 247.390625 455.8125 234.746094 417.527344 234.746094 C 323.453125 234.746094 247.171875 310.980469 247.171875 405.035156 C 247.171875 499.070312 323.4375 575.304688 417.527344 575.304688 C 454.484375 575.304688 488.699219 563.527344 516.621094 543.535156 C 536.824219 529.070312 554.800781 508.511719 572.320312 491.003906 L 529.320312 448 C 516.433594 460.882812 502.335938 476.164062 488.566406 487.957031 C 469.464844 504.308594 444.660156 514.214844 417.527344 514.214844 C 357.195312 514.214844 308.285156 465.324219 308.285156 405.015625 C 308.285156 344.710938 357.195312 295.820312 417.527344 295.820312 C 439.859375 295.820312 460.628906 302.523438 477.941406 314.027344 C 512.039062 336.695312 556.367188 389.074219 587.214844 419.90625 L 615.320312 448 L 725.90625 558.542969 C 669.4375 671.652344 552.574219 749.351562 417.527344 749.351562 C 227.273438 749.351562 73.039062 595.179688 73.039062 405 C 73.039062 214.820312 227.273438 60.648438 417.527344 60.648438 C 552.574219 60.648438 669.457031 138.347656 725.90625 251.457031 Z M 615.320312 362.050781 " fill-opacity="1" fill-rule="evenodd"/></g></svg>