<?xml version="1.0" standalone="no"?>
<!DOCTYPE svg PUBLIC "-//W3C//DTD SVG 20010904//EN"
 "http://www.w3.org/TR/2001/REC-SVG-20010904/DTD/svg10.dtd">
<svg version="1.0" xmlns="http://www.w3.org/2000/svg"
 width="1024.000000pt" height="1024.000000pt" viewBox="0 0 1024.000000 1024.000000"
 preserveAspectRatio="xMidYMid meet">

<g transform="translate(0.000000,1024.000000) scale(0.100000,-0.100000)"
fill="#000000" stroke="none">
<path d="M5947 7478 c-630 -1267 -1208 -2470 -1194 -2484 2 -2 66 48 143 111
76 64 216 177 309 253 94 75 188 155 210 177 24 25 73 104 124 200 69 131 306
571 443 825 17 30 100 186 185 345 85 160 161 300 169 312 8 12 14 30 14 40 0
10 -25 106 -55 213 -30 107 -69 247 -86 310 -18 63 -35 119 -39 123 -4 5 -104
-187 -223 -425z"/>
<path d="M8010 7478 c-156 -132 -342 -287 -795 -663 -236 -197 -437 -363 -445
-371 -12 -12 46 -14 399 -14 l412 0 54 113 c217 460 309 657 386 825 48 105
86 192 85 191 0 0 -44 -36 -96 -81z"/>
<path d="M4750 7364 c-14 -2 -65 -9 -115 -15 -172 -21 -508 -118 -660 -190
-76 -37 -97 -66 -83 -116 10 -40 61 -83 97 -83 16 0 57 13 92 29 97 44 232 89
359 121 117 29 132 32 299 51 89 11 377 7 578 -7 l83 -6 30 32 c39 42 47 73
26 105 -26 40 -68 54 -203 70 -114 13 -433 19 -503 9z"/>
<path d="M6308 6787 c-162 -294 -267 -485 -370 -677 -52 -96 -103 -189 -114
-205 -26 -40 -12 -30 126 85 63 53 180 149 260 212 80 64 186 151 235 192 50
42 94 76 98 76 5 0 6 15 2 33 -14 68 -119 462 -124 469 -4 4 -55 -79 -113
-185z"/>
<path d="M3304 6760 c-58 -23 -87 -128 -51 -184 24 -36 75 -66 113 -66 42 0
95 37 118 83 25 52 15 101 -31 144 -29 28 -42 33 -81 32 -26 0 -57 -4 -68 -9z"/>
<path d="M4005 6324 c-115 -11 -575 -120 -575 -136 0 -10 131 -246 282 -508
l84 -145 495 0 494 0 3 97 c9 300 -193 576 -488 666 -64 20 -218 33 -295 26z
m101 -340 c60 -29 82 -110 49 -174 -20 -39 -43 -50 -105 -50 -45 0 -56 4 -80
30 -50 54 -51 127 -2 172 45 42 83 48 138 22z"/>
<path d="M2023 6166 c-62 -7 -115 -15 -119 -18 -9 -10 15 -15 328 -67 386 -66
535 -97 868 -181 151 -38 285 -73 298 -76 19 -6 9 17 -69 152 -50 88 -96 164
-101 170 -12 16 -190 23 -683 28 -292 4 -442 1 -522 -8z"/>
<path d="M2551 5514 c-35 -29 -42 -52 -70 -220 -48 -286 -49 -493 -5 -788 106
-716 557 -1413 1164 -1798 318 -203 695 -339 1070 -388 203 -27 652 -15 741
18 50 20 68 66 43 117 -29 62 -54 68 -222 54 -562 -47 -1103 88 -1557 390
-490 325 -857 844 -1006 1424 -30 117 -38 168 -54 322 -25 245 -17 421 30 650
29 141 31 173 7 201 -40 50 -95 57 -141 18z"/>
<path d="M7379 5487 c-44 -29 -46 -58 -19 -207 44 -238 37 -579 -16 -847 -67
-340 -229 -688 -442 -951 -42 -52 -83 -104 -91 -116 -28 -44 11 -136 67 -157
35 -13 73 13 145 103 72 89 210 297 265 398 265 486 358 1071 262 1635 -17 99
-22 113 -50 137 -37 34 -75 36 -121 5z"/>
<path d="M5115 5048 c-144 -129 -154 -139 -268 -236 l-107 -92 766 0 766 0
181 172 c100 94 198 186 217 205 l35 33 -750 -1 -750 0 -90 -81z"/>
<path d="M4410 4339 c-63 -88 -183 -253 -267 -367 -106 -144 -148 -209 -140
-215 18 -12 246 -136 492 -267 121 -65 363 -196 537 -293 291 -160 316 -172
301 -143 -9 17 -64 117 -123 221 -58 105 -136 244 -172 310 -36 66 -128 233
-203 370 -76 138 -174 316 -218 398 -44 81 -82 147 -86 147 -3 -1 -58 -73
-121 -161z"/>
<path d="M6314 3412 l1 -904 80 -42 c199 -104 387 -205 454 -244 38 -22 44
-23 38 -8 -10 25 -198 702 -242 871 -20 77 -52 196 -70 265 -19 69 -77 287
-130 485 -53 198 -105 387 -115 420 -18 59 -18 46 -16 -843z"/>
</g>
</svg>
