<svg xmlns="http://www.w3.org/2000/svg" xmlns:xlink="http://www.w3.org/1999/xlink" width="156" zoomAndPan="magnify" viewBox="0 0 116.88 116.999995" height="156" preserveAspectRatio="xMidYMid meet" version="1.0"><defs><clipPath id="a925ba8cd4"><path d="M 0 40 L 116.761719 40 L 116.761719 116.9375 L 0 116.9375 Z M 0 40 " clip-rule="nonzero"/></clipPath><clipPath id="8d362c4291"><path d="M 48 0.0585938 L 69 0.0585938 L 69 22 L 48 22 Z M 48 0.0585938 " clip-rule="nonzero"/></clipPath></defs><g clip-path="url(#a925ba8cd4)"><path fill="#171717" d="M 97.90625 40.238281 L 19.007812 40.238281 C 18.398438 40.238281 17.792969 40.269531 17.1875 40.328125 C 16.582031 40.390625 15.980469 40.480469 15.386719 40.597656 C 14.789062 40.71875 14.199219 40.867188 13.617188 41.042969 C 13.035156 41.21875 12.464844 41.425781 11.902344 41.65625 C 11.339844 41.890625 10.789062 42.152344 10.253906 42.4375 C 9.71875 42.722656 9.195312 43.035156 8.691406 43.375 C 8.183594 43.710938 7.695312 44.074219 7.226562 44.457031 C 6.753906 44.84375 6.304688 45.25 5.875 45.679688 C 5.441406 46.109375 5.035156 46.558594 4.648438 47.03125 C 4.261719 47.5 3.898438 47.988281 3.558594 48.492188 C 3.21875 48.996094 2.90625 49.515625 2.617188 50.054688 C 2.332031 50.589844 2.070312 51.136719 1.835938 51.699219 C 1.601562 52.261719 1.394531 52.832031 1.214844 53.414062 C 1.039062 53.996094 0.890625 54.582031 0.769531 55.179688 C 0.648438 55.777344 0.554688 56.378906 0.496094 56.980469 C 0.433594 57.585938 0.402344 58.195312 0.398438 58.800781 L 0.398438 98.519531 C 0.398438 99.128906 0.429688 99.738281 0.492188 100.34375 C 0.554688 100.949219 0.644531 101.546875 0.761719 102.144531 C 0.882812 102.742188 1.03125 103.332031 1.210938 103.914062 C 1.386719 104.496094 1.59375 105.066406 1.828125 105.628906 C 2.0625 106.191406 2.324219 106.738281 2.609375 107.273438 C 2.898438 107.8125 3.210938 108.332031 3.550781 108.835938 C 3.890625 109.34375 4.253906 109.832031 4.640625 110.300781 C 5.027344 110.769531 5.433594 111.21875 5.863281 111.648438 C 6.296875 112.078125 6.746094 112.488281 7.21875 112.871094 C 7.6875 113.257812 8.175781 113.621094 8.683594 113.957031 C 9.191406 114.292969 9.710938 114.605469 10.25 114.890625 C 10.785156 115.179688 11.335938 115.4375 11.898438 115.671875 C 12.460938 115.902344 13.03125 116.105469 13.613281 116.285156 C 14.195312 116.460938 14.785156 116.605469 15.382812 116.726562 C 15.980469 116.84375 16.582031 116.933594 17.1875 116.992188 C 17.792969 117.050781 18.398438 117.082031 19.007812 117.082031 L 97.90625 117.082031 C 98.515625 117.082031 99.121094 117.050781 99.726562 116.992188 C 100.332031 116.933594 100.933594 116.84375 101.527344 116.722656 C 102.125 116.605469 102.714844 116.457031 103.296875 116.28125 C 103.878906 116.105469 104.449219 115.902344 105.011719 115.667969 C 105.574219 115.4375 106.121094 115.175781 106.65625 114.890625 C 107.195312 114.601562 107.714844 114.292969 108.222656 113.953125 C 108.726562 113.617188 109.214844 113.253906 109.683594 112.867188 C 110.15625 112.484375 110.605469 112.074219 111.035156 111.644531 C 111.464844 111.214844 111.871094 110.765625 112.257812 110.296875 C 112.644531 109.828125 113.007812 109.339844 113.34375 108.832031 C 113.683594 108.328125 113.996094 107.808594 114.28125 107.269531 C 114.566406 106.734375 114.828125 106.1875 115.058594 105.625 C 115.292969 105.0625 115.5 104.492188 115.675781 103.910156 C 115.851562 103.328125 116 102.738281 116.117188 102.144531 C 116.238281 101.546875 116.328125 100.945312 116.386719 100.339844 C 116.445312 99.734375 116.476562 99.128906 116.476562 98.519531 L 116.476562 58.800781 C 116.476562 58.195312 116.445312 57.585938 116.386719 56.984375 C 116.324219 56.378906 116.238281 55.777344 116.117188 55.179688 C 116 54.585938 115.851562 53.996094 115.675781 53.414062 C 115.496094 52.832031 115.292969 52.261719 115.058594 51.699219 C 114.828125 51.136719 114.566406 50.589844 114.28125 50.050781 C 113.992188 49.515625 113.679688 48.996094 113.34375 48.488281 C 113.003906 47.984375 112.644531 47.496094 112.257812 47.027344 C 111.871094 46.558594 111.464844 46.109375 111.035156 45.675781 C 110.601562 45.246094 110.152344 44.839844 109.683594 44.453125 C 109.214844 44.070312 108.726562 43.707031 108.21875 43.367188 C 107.714844 43.03125 107.195312 42.71875 106.65625 42.433594 C 106.121094 42.144531 105.574219 41.886719 105.011719 41.652344 C 104.449219 41.421875 103.878906 41.214844 103.296875 41.039062 C 102.714844 40.863281 102.125 40.714844 101.527344 40.597656 C 100.933594 40.476562 100.332031 40.386719 99.726562 40.328125 C 99.121094 40.269531 98.515625 40.238281 97.90625 40.238281 Z M 25.253906 69.644531 L 23.558594 67.921875 L 26.933594 64.496094 L 28.699219 66.222656 C 29.0625 66.582031 29.457031 66.902344 29.878906 67.179688 C 30.304688 67.460938 30.75 67.699219 31.222656 67.894531 C 31.691406 68.085938 32.175781 68.234375 32.675781 68.332031 C 33.175781 68.429688 33.679688 68.480469 34.1875 68.480469 C 34.695312 68.480469 35.199219 68.429688 35.699219 68.332031 C 36.199219 68.234375 36.683594 68.085938 37.152344 67.894531 C 37.625 67.699219 38.070312 67.460938 38.496094 67.179688 C 38.917969 66.902344 39.3125 66.582031 39.671875 66.222656 L 41.355469 64.496094 L 44.824219 67.910156 L 43.058594 69.644531 C 42.476562 70.230469 41.839844 70.753906 41.152344 71.214844 C 40.46875 71.675781 39.742188 72.066406 38.976562 72.382812 C 38.214844 72.699219 37.425781 72.941406 36.613281 73.101562 C 35.804688 73.265625 34.984375 73.347656 34.15625 73.347656 C 33.328125 73.347656 32.511719 73.265625 31.699219 73.101562 C 30.886719 72.941406 30.101562 72.699219 29.335938 72.382812 C 28.574219 72.066406 27.847656 71.675781 27.160156 71.214844 C 26.472656 70.753906 25.839844 70.230469 25.253906 69.644531 Z M 76.640625 95.507812 L 74.945312 93.800781 C 73.867188 92.714844 72.695312 91.746094 71.425781 90.894531 C 70.15625 90.042969 68.816406 89.324219 67.40625 88.738281 C 65.992188 88.152344 64.535156 87.710938 63.039062 87.414062 C 61.539062 87.117188 60.023438 86.96875 58.496094 86.972656 C 56.964844 86.972656 55.445312 87.117188 53.945312 87.414062 C 52.441406 87.710938 50.984375 88.152344 49.570312 88.738281 C 48.15625 89.328125 46.8125 90.046875 45.539062 90.898438 C 44.265625 91.75 43.089844 92.71875 42.011719 93.804688 L 40.304688 95.527344 L 36.847656 92.113281 L 38.535156 90.375 C 39.84375 89.0625 41.265625 87.894531 42.804688 86.863281 C 44.34375 85.835938 45.96875 84.96875 47.683594 84.257812 C 49.394531 83.550781 51.15625 83.015625 52.972656 82.65625 C 54.789062 82.296875 56.625 82.121094 58.476562 82.121094 C 60.320312 82.117188 62.144531 82.289062 63.957031 82.648438 C 65.765625 83.003906 67.519531 83.539062 69.222656 84.246094 C 70.925781 84.953125 72.542969 85.820312 74.074219 86.847656 C 75.605469 87.878906 77.019531 89.046875 78.316406 90.359375 L 80.089844 92.085938 Z M 91.691406 69.632812 C 91.101562 70.222656 90.464844 70.746094 89.773438 71.207031 C 89.082031 71.667969 88.355469 72.054688 87.585938 72.375 C 86.820312 72.691406 86.03125 72.929688 85.214844 73.09375 C 84.402344 73.253906 83.578125 73.335938 82.746094 73.335938 C 81.917969 73.335938 81.09375 73.253906 80.28125 73.09375 C 79.464844 72.929688 78.675781 72.691406 77.910156 72.375 C 77.140625 72.054688 76.414062 71.667969 75.722656 71.207031 C 75.03125 70.746094 74.394531 70.222656 73.804688 69.632812 L 72.113281 67.910156 L 75.558594 64.484375 L 77.265625 66.214844 C 77.628906 66.570312 78.019531 66.890625 78.445312 67.171875 C 78.867188 67.453125 79.3125 67.6875 79.785156 67.882812 C 80.253906 68.074219 80.738281 68.222656 81.238281 68.320312 C 81.734375 68.417969 82.238281 68.46875 82.746094 68.46875 C 83.257812 68.46875 83.761719 68.417969 84.257812 68.320312 C 84.757812 68.222656 85.242188 68.074219 85.710938 67.882812 C 86.179688 67.6875 86.628906 67.453125 87.050781 67.171875 C 87.476562 66.890625 87.867188 66.570312 88.230469 66.214844 L 89.984375 64.484375 L 93.386719 67.902344 Z M 91.691406 69.632812 " fill-opacity="1" fill-rule="nonzero"/></g><path fill="#171717" d="M 51.492188 33.53125 L 65.425781 33.53125 L 65.425781 38.34375 L 51.492188 38.34375 Z M 51.492188 33.53125 " fill-opacity="1" fill-rule="nonzero"/><path fill="#171717" d="M 51.492188 26.691406 L 65.425781 26.691406 L 65.425781 31.535156 L 51.492188 31.535156 Z M 51.492188 26.691406 " fill-opacity="1" fill-rule="nonzero"/><path fill="#171717" d="M 56.03125 18.28125 L 60.882812 18.28125 L 60.882812 25.316406 L 56.03125 25.316406 Z M 56.03125 18.28125 " fill-opacity="1" fill-rule="nonzero"/><g clip-path="url(#8d362c4291)"><path fill="#171717" d="M 58.441406 21.148438 C 57.777344 21.148438 57.117188 21.082031 56.46875 20.949219 C 55.816406 20.820312 55.183594 20.625 54.570312 20.371094 C 53.957031 20.117188 53.375 19.800781 52.824219 19.433594 C 52.273438 19.0625 51.761719 18.640625 51.292969 18.171875 C 50.824219 17.699219 50.40625 17.1875 50.039062 16.636719 C 49.671875 16.082031 49.363281 15.5 49.109375 14.886719 C 48.855469 14.269531 48.667969 13.636719 48.539062 12.984375 C 48.410156 12.335938 48.347656 11.675781 48.347656 11.011719 C 48.351562 10.347656 48.417969 9.691406 48.546875 9.039062 C 48.679688 8.390625 48.875 7.757812 49.128906 7.144531 C 49.382812 6.53125 49.699219 5.949219 50.066406 5.398438 C 50.4375 4.847656 50.859375 4.335938 51.332031 3.867188 C 51.800781 3.398438 52.3125 2.980469 52.867188 2.613281 C 53.417969 2.246094 54.003906 1.9375 54.617188 1.683594 C 55.230469 1.433594 55.863281 1.242188 56.515625 1.113281 C 57.167969 0.988281 57.828125 0.925781 58.492188 0.925781 C 59.15625 0.929688 59.8125 0.996094 60.464844 1.125 C 61.113281 1.257812 61.746094 1.453125 62.359375 1.707031 C 62.972656 1.964844 63.554688 2.277344 64.105469 2.648438 C 64.65625 3.019531 65.164062 3.441406 65.632812 3.910156 C 66.101562 4.382812 66.519531 4.894531 66.886719 5.449219 C 67.253906 6 67.5625 6.585938 67.816406 7.199219 C 68.066406 7.8125 68.257812 8.445312 68.382812 9.097656 C 68.511719 9.75 68.574219 10.410156 68.570312 11.074219 C 68.570312 11.738281 68.503906 12.394531 68.371094 13.042969 C 68.242188 13.695312 68.046875 14.324219 67.792969 14.9375 C 67.535156 15.550781 67.222656 16.132812 66.855469 16.683594 C 66.484375 17.234375 66.0625 17.742188 65.59375 18.210938 C 65.121094 18.675781 64.609375 19.09375 64.058594 19.460938 C 63.503906 19.828125 62.921875 20.140625 62.308594 20.390625 C 61.695312 20.644531 61.0625 20.832031 60.410156 20.960938 C 59.761719 21.089844 59.101562 21.152344 58.441406 21.148438 Z M 58.441406 5.777344 C 58.09375 5.777344 57.753906 5.8125 57.414062 5.882812 C 57.078125 5.949219 56.75 6.050781 56.429688 6.183594 C 56.113281 6.316406 55.808594 6.476562 55.523438 6.671875 C 55.238281 6.863281 54.972656 7.082031 54.730469 7.324219 C 54.484375 7.570312 54.269531 7.835938 54.078125 8.121094 C 53.886719 8.410156 53.726562 8.710938 53.59375 9.03125 C 53.460938 9.347656 53.363281 9.679688 53.296875 10.015625 C 53.230469 10.355469 53.195312 10.695312 53.195312 11.039062 C 53.195312 11.386719 53.230469 11.726562 53.296875 12.066406 C 53.363281 12.402344 53.464844 12.730469 53.597656 13.050781 C 53.726562 13.371094 53.890625 13.671875 54.082031 13.957031 C 54.273438 14.246094 54.492188 14.511719 54.734375 14.753906 C 54.976562 15 55.242188 15.21875 55.53125 15.410156 C 55.816406 15.601562 56.117188 15.761719 56.4375 15.894531 C 56.753906 16.027344 57.085938 16.128906 57.421875 16.195312 C 57.761719 16.261719 58.101562 16.296875 58.445312 16.296875 C 58.792969 16.296875 59.132812 16.265625 59.472656 16.199219 C 59.808594 16.132812 60.136719 16.03125 60.457031 15.902344 C 60.777344 15.769531 61.078125 15.609375 61.367188 15.417969 C 61.652344 15.226562 61.917969 15.011719 62.164062 14.765625 C 62.410156 14.523438 62.628906 14.257812 62.820312 13.972656 C 63.011719 13.6875 63.175781 13.382812 63.308594 13.066406 C 63.441406 12.75 63.542969 12.421875 63.609375 12.082031 C 63.679688 11.742188 63.714844 11.402344 63.714844 11.058594 C 63.714844 10.710938 63.679688 10.367188 63.613281 10.027344 C 63.542969 9.6875 63.445312 9.359375 63.3125 9.039062 C 63.179688 8.71875 63.015625 8.414062 62.824219 8.128906 C 62.632812 7.839844 62.414062 7.574219 62.167969 7.328125 C 61.921875 7.082031 61.65625 6.863281 61.371094 6.671875 C 61.082031 6.476562 60.777344 6.316406 60.457031 6.183594 C 60.136719 6.050781 59.808594 5.949219 59.46875 5.882812 C 59.128906 5.8125 58.785156 5.777344 58.441406 5.777344 Z M 58.441406 5.777344 " fill-opacity="1" fill-rule="nonzero"/></g></svg>