<svg xmlns="http://www.w3.org/2000/svg" xmlns:xlink="http://www.w3.org/1999/xlink" width="15" zoomAndPan="magnify" viewBox="0 0 11.25 25.499998" height="34" preserveAspectRatio="xMidYMid meet" version="1.0"><defs><clipPath id="e297b4613d"><path d="M 0 0.5625 L 10.546875 0.5625 L 10.546875 4 L 0 4 Z M 0 0.5625 " clip-rule="nonzero"/></clipPath><clipPath id="b1fbfa9ee5"><path d="M 0 21 L 10.546875 21 L 10.546875 24 L 0 24 Z M 0 21 " clip-rule="nonzero"/></clipPath><clipPath id="1e4b06c088"><path d="M 0 11 L 10.546875 11 L 10.546875 14 L 0 14 Z M 0 11 " clip-rule="nonzero"/></clipPath></defs><g clip-path="url(#e297b4613d)"><path stroke-linecap="round" transform="matrix(0.703125, 0, 0, 0.703125, 0.271056, 0.920512)" fill="none" stroke-linejoin="miter" d="M 1.997832 2.001939 L 12.264499 2.001939 " stroke="#5271ff" stroke-width="4" stroke-opacity="1" stroke-miterlimit="4"/></g><g clip-path="url(#b1fbfa9ee5)"><path stroke-linecap="round" transform="matrix(0.703125, 0, 0, 0.703125, 0.271056, 21.170511)" fill="none" stroke-linejoin="miter" d="M 1.997832 2.00194 L 12.264499 2.00194 " stroke="#5271ff" stroke-width="4" stroke-opacity="1" stroke-miterlimit="4"/></g><g clip-path="url(#1e4b06c088)"><path stroke-linecap="round" transform="matrix(0.703125, 0, 0, 0.703125, 0.271056, 11.04551)" fill="none" stroke-linejoin="miter" d="M 1.997832 2.001941 L 12.264499 2.001941 " stroke="#5271ff" stroke-width="4" stroke-opacity="1" stroke-miterlimit="4"/></g></svg>